<svg id="svg" version="1.1" xmlns="http://www.w3.org/2000/svg" xmlns:xlink="http://www.w3.org/1999/xlink" width="400" height="400" viewBox="0, 0, 400,400"><g id="svgg"><path id="path0" d="M238.000 68.145 C 199.001 74.985,159.610 113.829,154.784 150.205 C 153.169 162.378,152.337 162.154,139.357 146.070 C 102.985 100.999,37.104 121.555,37.024 178.000 C 36.970 216.203,108.133 293.953,166.892 319.890 C 228.453 347.063,304.882 304.054,361.185 210.553 C 399.451 147.006,318.954 53.949,238.000 68.145 M279.414 104.082 C 300.932 114.628,326.000 149.029,326.000 168.012 C 326.000 191.910,263.830 260.310,226.437 277.553 C 187.972 295.289,128.154 260.777,76.419 191.000 C 61.007 170.214,64.289 152.000,83.446 152.000 C 93.080 152.000,95.241 153.473,106.496 167.713 C 156.806 231.364,194.545 255.208,219.304 238.985 L 224.118 235.831 209.859 220.116 C 192.709 201.215,189.172 195.646,184.833 180.722 C 169.065 126.480,227.877 78.825,279.414 104.082 M238.901 136.813 C 225.294 142.740,217.425 159.139,221.812 172.429 C 224.379 180.208,252.554 209.130,255.681 207.197 C 263.919 202.106,282.000 173.225,282.000 165.158 C 282.000 145.471,256.909 128.969,238.901 136.813 " stroke="none" fill="#000000" fill-rule="evenodd"></path></g></svg>